<?xml version="1.0" standalone="no"?><!DOCTYPE svg PUBLIC "-//W3C//DTD SVG 1.1//EN" "http://www.w3.org/Graphics/SVG/1.1/DTD/svg11.dtd"><svg width="200" height="200" viewBox="0 0 200 200" version="1.1" xmlns="http://www.w3.org/2000/svg" xmlns:xlink="http://www.w3.org/1999/xlink"><defs><style type="text/css"><![CDATA[
@font-face { font-family: ifont; src: url("//at.alicdn.com/t/font_1442373896_4754455.eot?#iefix") format("embedded-opentype"), url("//at.alicdn.com/t/font_1442373896_4754455.woff") format("woff"), url("//at.alicdn.com/t/font_1442373896_4754455.ttf") format("truetype"), url("//at.alicdn.com/t/font_1442373896_4754455.svg#ifont") format("svg"); }

]]></style></defs><g class="transform-group"><g transform="scale(0.1953125, 0.1953125)"><path d="M656.587136 583.695447l-0.094872 0.19461 0.389219-0.289482-0.099737-0.19461L656.587136 583.695447zM656.587136 583.695447M761.289613 695.501179c-12.068237 0-21.893597 9.82536-21.893597 21.893597l0 0.094872 0 55.85543 0 22.962734c0 34.251315-28.022587 62.273903-62.273903 62.273903L221.731656 858.581715C187.480341 858.581715 159.457753 830.559128 159.457753 796.307812L159.457753 229.991015c0-34.251315 28.022587-62.273903 62.273903-62.273903l455.390457 0c34.251315 0 62.273903 28.022587 62.273903 62.273903l0 22.962734 0 55.85543 0 0.094872c0 12.068237 9.82536 21.893597 21.893597 21.893597 12.063372 0 21.893597-9.82536 21.893597-21.893597l0-0.094872 0-55.85543L783.183209 221.234793c0-53.51768-43.787193-97.304874-97.304874-97.304874L212.975434 123.92992c-53.51768 0-97.304874 43.787193-97.304874 97.304874l0 583.829241c0 53.51768 43.787193 97.304874 97.304874 97.304874l472.902902 0c53.51768 0 97.304874-43.787193 97.304874-97.304874l0-31.718956L783.183209 717.489648l0-0.094872C783.183209 705.421411 773.258112 695.501179 761.289613 695.501179L761.289613 695.501179zM761.289613 695.501179M686.947473 470.920315c-10.214579 0-18.586447 8.367003-18.586447 18.682536 0 10.314317 8.272131 18.681319 18.586447 18.681319 10.214579 0 18.586447-8.367003 18.586447-18.681319C705.53392 479.287318 697.162052 470.920315 686.947473 470.920315L686.947473 470.920315zM686.947473 470.920315M759.341083 470.920315c-10.214579 0-18.581582 8.367003-18.581582 18.682536 0 10.314317 8.267265 18.681319 18.581582 18.681319s18.586447-8.367003 18.586447-18.681319C777.827792 479.287318 769.561743 470.920315 759.341083 470.920315L759.341083 470.920315zM759.341083 470.920315M811.110924 489.602851c0.124064-4.851864 2.213686-9.61737 5.692335-12.98047 3.477433-3.364316 8.300106-5.278789 13.122779-5.211892 4.822673 0.060816 9.588179 2.104218 12.975605 5.553676 3.382561 3.454323 5.349335 8.272131 5.349335 13.122779 0 4.850648-1.966775 9.673321-5.349335 13.122779-3.387426 3.454323-8.152932 5.497725-12.975605 5.558541-4.822673 0.062032-9.645346-1.852442-13.122779-5.216758-3.477433-3.358234-5.568271-8.128606-5.692335-12.975605L811.110924 489.602851zM811.110924 489.602851M908.31606 388.796218c-0.779655-15.764606-13.721203-28.318151-29.580682-28.318151l0 0L636.057024 360.478067l0 0c-15.764606 0-28.70737 12.553545-29.580682 28.318151l0 1.553229 0 202.39657 0 0c0 16.444524 13.232246 29.775291 29.580682 29.775291l0 0 78.623554 0 36.878547 31.330953 0.094872 0.098521c0.099737 0.094872 0.19461 0.094872 0.294347 0.19461 0.094872 0.094872 0.289482 0.189745 0.389219 0.289482 0.094872 0.094872 0.19461 0.094872 0.289482 0.19461 0.099737 0.094872 0.294347 0.19461 0.389219 0.19461 0.094872 0.096089 0.19461 0.096089 0.389219 0.195826 0.094872 0.093656 0.289482 0.093656 0.389219 0.193393 0.094872 0.094872 0.289482 0.094872 0.389219 0.19461 0.094872 0.094872 0.289482 0.094872 0.389219 0.19461 0.094872 0 0.19461 0.094872 0.389219 0.094872s0.289482 0.099737 0.484092 0.099737c0.094872 0 0.19461 0.094872 0.389219 0.094872s0.389219 0.099737 0.484092 0.099737l0.294347 0 0.779655 0 0.77479 0 0.294347 0c0.19461 0 0.389219 0 0.484092-0.099737 0.099737 0 0.19461-0.094872 0.389219-0.094872s0.294347-0.099737 0.488957-0.099737c0.094872 0 0.19461-0.094872 0.389219-0.094872 0.094872 0 0.289482-0.099737 0.384354-0.19461 0.099737 0 0.294347-0.099737 0.389219-0.19461 0.099737-0.099737 0.294347-0.099737 0.389219-0.193393 0.099737-0.099737 0.19461-0.099737 0.389219-0.195826 0.099737-0.099737 0.294347-0.19461 0.389219-0.19461 0.099737-0.099737 0.19461-0.099737 0.294347-0.19461 0.094872-0.099737 0.289482-0.19461 0.384354-0.289482 0.099737-0.099737 0.19461-0.099737 0.294347-0.19461l0.094872-0.098521 36.878547-31.330953 78.623554 0 0 0c16.348435 0 29.580682-13.331984 29.580682-29.775291l0 0L908.30633 390.349447 908.30633 388.796218 908.31606 388.796218zM870.562986 573.286258c0 6.324817-5.059853 11.383454-11.288582 11.383454 0 0-72.295088 0.975481-73.95292 2.627232l-27.92285 23.446826-27.927715-23.446826c-1.752704-1.65175-73.95292-2.627232-73.95292-2.627232-6.228728 0-11.288582-5.158375-11.288582-11.383454L644.229417 409.810422c0-6.3236 5.059853-11.383454 11.288582-11.383454l203.756405 0c6.228728 0 11.288582 5.159591 11.288582 11.383454L870.562986 573.286258 870.562986 573.286258zM870.562986 573.286258M633.72414 302.681405c0-12.068237-9.830225-21.893597-21.893597-21.893597L233.216064 280.787808c-12.068237 0-21.893597 9.82536-21.893597 21.893597 0 12.063372 9.82536 21.893597 21.893597 21.893597l378.614479 0C623.893915 324.575001 633.72414 314.744777 633.72414 302.681405L633.72414 302.681405zM633.72414 302.681405M233.216064 415.84454c-12.068237 0-21.893597 9.82536-21.893597 21.893597l0 0c0 12.068237 9.82536 21.893597 21.893597 21.893597L478.520434 459.631733c12.063372 0 21.893597-9.82536 21.893597-21.893597l0 0c0-12.068237-9.830225-21.893597-21.893597-21.893597L233.216064 415.84454 233.216064 415.84454zM233.216064 415.84454" fill="#11cd6e"></path></g></g></svg>