<?xml version="1.0" standalone="no"?><!DOCTYPE svg PUBLIC "-//W3C//DTD SVG 1.1//EN" "http://www.w3.org/Graphics/SVG/1.1/DTD/svg11.dtd"><svg t="1493527330585" class="icon" style="" viewBox="0 0 1024 1024" version="1.1" xmlns="http://www.w3.org/2000/svg" p-id="4650" xmlns:xlink="http://www.w3.org/1999/xlink" width="200" height="200"><defs><style type="text/css"></style></defs><path d="M837.467429 54.857143 186.514286 54.857143C103.844571 54.857143 36.571429 121.782857 36.571429 204.050286l0 615.862857C36.571429 902.180571 103.844571 969.142857 186.514286 969.142857l650.953143 0C920.137143 969.142857 987.428571 902.180571 987.428571 819.913143l0-615.862857C987.428571 120.393143 921.563429 54.857143 837.467429 54.857143zM892.16 212.498286l0 603.556571c0 35.437714-27.885714 63.195429-63.524571 63.195429L195.364571 879.250286c-35.602286 0-63.506286-27.776-63.506286-63.195429L131.858286 212.498286c0-35.437714 27.885714-63.195429 63.506286-63.195429l633.289143 0C864.274286 149.302857 892.16 177.060571 892.16 212.498286z" p-id="4651" fill="#1296db"></path><path d="M502.875429 672.438857c-31.396571 0-50.797714 24.905143-50.797714 47.963429 0 24.118857 18.761143 50.157714 49.060571 50.157714 23.753143 0 49.115429-13.165714 49.115429-50.157714 0.128-13.952-4.297143-25.728-12.873143-34.340571C528.749714 677.412571 516.169143 672.438857 502.875429 672.438857z" p-id="4652" fill="#1296db"></path><path d="M506.349714 253.403429c-42.258286 0-158.409143 26.203429-159.085714 110.482286 0 22.784 23.734857 25.892571 33.901714 26.185143 12.050286-0.018286 23.003429-8.045714 39.862857-21.101714 20.406857-15.853714 45.842286-35.602286 83.547429-35.602286 36.845714 0 79.670857 36.498286 79.670857 83.584 0.530286 56.082286-39.222857 77.019429-71.168 93.805714-32.603429 17.152-51.035429 28.397714-51.035429 60.251429 0 2.304 0.438857 56.173714 39.460571 56.173714 19.328 0 32.164571-15.232 51.529143-40.064 11.885714-15.213714 24.137143-30.939429 40.557714-43.227429 2.029714-1.883429 7.698286-5.814857 14.610286-10.514286 15.195429-10.294857 40.557714-27.501714 48.292571-44.068571l4.608-10.185143c12.324571-27.081143 15.634286-34.377143 15.634286-70.4C676.388571 294.235429 588.489143 253.403429 506.349714 253.403429z" p-id="4653" fill="#1296db"></path></svg>