<?xml version="1.0" standalone="no"?>
<!DOCTYPE svg PUBLIC "-//W3C//DTD SVG 1.1//EN" "http://www.w3.org/Graphics/SVG/1.1/DTD/svg11.dtd">
<svg t="1493449317728" class="icon" style="" viewBox="0 0 1024 1024" version="1.1" xmlns="http://www.w3.org/2000/svg" p-id="1186" xmlns:xlink="http://www.w3.org/1999/xlink" width="200" height="200">
    <defs><style type="text/css"></style></defs>
    <path d="M788.48 512c17.408 0 30.72-13.312 30.72-30.72v-20.48c0-17.408-13.312-30.72-30.72-30.72h-40.96V318.464l-3.072-3.072-58.368-63.488V235.52c0-11.264-9.216-20.48-20.48-20.48h-10.24c-11.264 0-20.48 9.216-20.48 20.48v10.24c0 11.264 9.216 20.48 20.48 20.48h16.384l55.296 60.416V430.08h-51.2c0-90.112-73.728-163.84-163.84-163.84S348.16 339.968 348.16 430.08h-51.2V326.656l55.296-60.416H368.64c11.264 0 20.48-9.216 20.48-20.48v-10.24c0-11.264-9.216-20.48-20.48-20.48h-10.24c-11.264 0-20.48 9.216-20.48 20.48v16.384l-58.368 63.488-3.072 3.072V430.08h-40.96c-17.408 0-30.72 13.312-30.72 30.72v20.48c0 17.408 13.312 30.72 30.72 30.72h10.24v194.56h-10.24c-17.408 0-30.72 13.312-30.72 30.72v20.48c0 17.408 13.312 30.72 30.72 30.72h552.96c17.408 0 30.72-13.312 30.72-30.72v-20.48c0-17.408-13.312-30.72-30.72-30.72h-10.24V512h10.24zM655.36 245.76v-10.24h10.24v10.24h-10.24z m-296.96 0v-10.24h10.24v10.24h-10.24z m153.6 40.96c78.848 0 143.36 64.512 143.36 143.36H368.64c0-78.848 64.512-143.36 143.36-143.36z m266.24 440.32h10.24c6.144 0 10.24 4.096 10.24 10.24v20.48c0 6.144-4.096 10.24-10.24 10.24H235.52c-6.144 0-10.24-4.096-10.24-10.24v-20.48c0-6.144 4.096-10.24 10.24-10.24h542.72z m-20.48-20.48H266.24V512h491.52v194.56zM245.76 491.52h-10.24c-6.144 0-10.24-4.096-10.24-10.24v-20.48c0-6.144 4.096-10.24 10.24-10.24h552.96c6.144 0 10.24 4.096 10.24 10.24v20.48c0 6.144-4.096 10.24-10.24 10.24H245.76z" fill="#ffffff" p-id="1187"></path>
    <path d="M512 245.76c53.248 0 102.4-68.608 102.4-126.976C614.4 64.512 568.32 20.48 512 20.48S409.6 64.512 409.6 118.784c0 58.368 49.152 126.976 102.4 126.976z m0-204.8c45.056 0 81.92 34.816 81.92 77.824 0 49.152-41.984 106.496-81.92 106.496s-81.92-57.344-81.92-106.496C430.08 75.776 466.944 40.96 512 40.96z" fill="#ffffff" p-id="1188"></path>
</svg>