<?xml version="1.0" standalone="no"?><!DOCTYPE svg PUBLIC "-//W3C//DTD SVG 1.1//EN" "http://www.w3.org/Graphics/SVG/1.1/DTD/svg11.dtd"><svg width="32" height="32" viewBox="0 0 32 32" version="1.1" xmlns="http://www.w3.org/2000/svg" xmlns:xlink="http://www.w3.org/1999/xlink"><defs><style type="text/css"><![CDATA[
@font-face { font-family: ifont; src: url("//at.alicdn.com/t/font_1442373896_4754455.eot?#iefix") format("embedded-opentype"), url("//at.alicdn.com/t/font_1442373896_4754455.woff") format("woff"), url("//at.alicdn.com/t/font_1442373896_4754455.ttf") format("truetype"), url("//at.alicdn.com/t/font_1442373896_4754455.svg#ifont") format("svg"); }

]]></style></defs><g class="transform-group"><g transform="scale(0.03125, 0.03125)"><path d="M512.004605 560.723701c-125.394918 0-227.411383-102.016465-227.411383-227.411383 0-125.393895 102.016465-227.41036 227.411383-227.41036 125.392872 0 227.409336 102.016465 227.409336 227.41036C739.413941 458.707236 637.397477 560.723701 512.004605 560.723701zM512.004605 141.928476c-105.534592 0-191.385888 85.850274-191.385888 191.384865s85.851297 191.384865 191.385888 191.384865c105.534592 0 191.383842-85.851297 191.383842-191.384865S617.539196 141.928476 512.004605 141.928476zM514.404258 918.098042C376.222105 918.113391 196.966489 802.984281 189.262016 798.006919l-15.136745-9.8176 9.832949-15.127536c4.898567-7.528464 48.708352-74.341149 77.265758-97.999988 37.33635-30.933523 69.597101-43.564191 70.950935-44.081984 9.305947-3.553942 19.71911 1.037632 23.290449 10.32516 3.570315 9.270131-1.029446 19.684318-10.29139 23.27203l0 0c-0.281409 0.113587-28.461215 11.292184-60.959374 38.22458-16.455787 13.632485-43.246967 50.435693-59.772338 74.552973 47.045479 28.109198 191.059454 108.340497 296.751634 104.611569 106.749256-3.553942 238.70459-76.026534 281.518698-101.233636-10.606569-19.790742-30.281677-54.589292-46.666856-72.890101-22.315238-24.934902-67.794036-43.125193-68.251454-43.300178-9.243525-3.657296-13.782911-14.116509-10.132778-23.36822 3.651157-9.251711 14.072507-13.826913 23.351847-10.140964 2.180666 0.853437 53.827953 21.443381 81.874729 52.780087 26.825972 29.983895 58.400085 92.856851 59.729359 95.513354l7.255241 14.527878-13.684674 8.725732c-7.097652 4.520967-175.3691 110.766756-313.796846 115.394147C519.753079 918.062226 517.07918 918.098042 514.404258 918.098042z" fill="#11cd6e"></path></g></g></svg>