<?xml version="1.0" standalone="no"?><!DOCTYPE svg PUBLIC "-//W3C//DTD SVG 1.1//EN" "http://www.w3.org/Graphics/SVG/1.1/DTD/svg11.dtd"><svg width="32" height="32" viewBox="0 0 32 32" version="1.1" xmlns="http://www.w3.org/2000/svg" xmlns:xlink="http://www.w3.org/1999/xlink"><defs><style type="text/css"><![CDATA[
@font-face { font-family: ifont; src: url("//at.alicdn.com/t/font_1442373896_4754455.eot?#iefix") format("embedded-opentype"), url("//at.alicdn.com/t/font_1442373896_4754455.woff") format("woff"), url("//at.alicdn.com/t/font_1442373896_4754455.ttf") format("truetype"), url("//at.alicdn.com/t/font_1442373896_4754455.svg#ifont") format("svg"); }

]]></style></defs><g class="transform-group"><g transform="scale(0.03125, 0.03125)"><path d="M945.418 883.736l-97.225-72.919h-522.545c-40.274 0-72.915-32.644-72.915-72.915v-36.458h-85.077l-97.217 72.919v-546.863c0-40.271 32.644-72.915 72.915-72.915h583.324c40.263 0 72.908 32.644 72.908 72.915v145.825h72.923c40.274 0 72.919 32.649 72.919 72.919l-0.007 437.49zM763.131 227.501c0-20.135-16.322-36.461-36.454-36.461h-583.324c-20.132 0-36.461 16.326-36.461 36.461v473.943l48.617-36.454h571.168c20.132 0 36.454-16.326 36.454-36.461v-401.029zM908.963 737.903c0 0 0-2.133 0-6.037 0-41.732 0-285.618 0-285.618 0-20.135-16.322-36.461-36.458-36.461h-72.923v218.745c0 40.271-32.644 72.915-72.908 72.915h-437.488v36.458c0 20.135 16.322 36.461 36.461 36.461h534.703l48.612 36.454v-72.915zM531.497 604.965l-34.602-34.602c-23.786 13.42-50.854 21.711-80.109 21.711-90.608 0-164.055-73.451-164.055-164.055 0-90.608 73.447-164.059 164.055-164.059s164.062 73.451 164.062 164.059c0 48.032-21.006 90.83-53.906 120.835l17.438 6.766h72.915v36.454h-72.912l-12.887 12.89zM544.388 428.017c0-70.473-57.124-127.604-127.601-127.604-70.469 0-127.601 57.133-127.601 127.604 0 70.469 57.133 127.601 127.601 127.601 19.111 0 37.067-4.492 53.341-12.025l-48.004-48.004 25.778-25.778 53.261 53.261c26.316-23.376 43.225-57.092 43.225-95.056z" fill="#11cd6e"></path></g></g></svg>