<?xml version="1.0" encoding="utf-8"?>
<!DOCTYPE svg PUBLIC "-//W3C//DTD SVG 1.1//EN" "http://www.w3.org/Graphics/SVG/1.1/DTD/svg11.dtd">
<svg version="1.1" id="图形" xmlns="http://www.w3.org/2000/svg" xmlns:xlink="http://www.w3.org/1999/xlink" x="0px" y="0px" width="28px" height="28px" viewBox="0 0 1024 1024" enable-background="new 0 0 1024 1024" xml:space="preserve">
  <path fill="#486fe8" d="M725.869461 696.911822l-0.089028-0.091074c-4.13518 4.259-9.804297 6.969739-16.143679 6.969739-12.378935 0-22.434965-10.092869-22.434965-22.514783 0-6.384407 2.687202-12.07706 6.935969-16.165168l-0.092098-0.11461L849.020268 509.559806 678.338934 509.559806C446.462866 480.660616 383.498836 345.260833 365.239983 103.487348c0-12.423961 10.080589-22.515806 22.458501-22.515806 12.33084 0 22.458501 10.091846 22.458501 22.515806l0.115634 0c18.186198 216.962403 61.265342 337.953012 268.067338 360.972285l170.681334 0L694.045661 309.036817l0.137123-0.138146c-3.790326-4.052293-6.200212-9.404184-6.200212-15.373129 0-12.423961 10.058077-22.51376 22.455431-22.51376 5.92699 0 11.301394 2.422166 15.294334 6.233981l0.1361-0.116657 206.804043 207.389374 0 4.994758L725.869461 696.911822zM875.127879 231.905112c-11.732206 0-21.262256-9.519818-21.307282-21.265326l0-0.068562c0 0 0-0.023536 0-0.057305l0-221.152842c0-23.616884-19.061125-42.744523-42.61968-42.744523L403.589406-53.383446c-0.022513 0-0.047072 0-0.047072 0L171.733804-53.383446c-23.537066 0-42.617633 19.127639-42.617633 42.744523l0 413.640832c0 0 0 0.069585 0 0.079818L129.116171 540.318344c0 23.616884 19.080567 42.744523 42.617633 42.744523l299.386648 0c11.736299 0.023536 21.267373 9.552563 21.267373 21.367657 0 11.81407-9.531074 21.36561-21.267373 21.36561L167.48606 625.796134c-44.730761 0-80.989569-36.348859-80.989569-81.195254l0-141.520177c0-0.011256 0-0.058328 0-0.058328l0-417.931554c0-44.857651 36.258809-81.210603 80.989569-81.210603l647.962601 0c44.753273 0 80.990592 36.350906 80.990592 81.210603l0 225.546919C896.394229 222.385295 886.863155 231.905112 875.127879 231.905112z" transform="translate(0, 812) scale(1, -1)"/>
</svg>
