<?xml version="1.0" standalone="no"?><!DOCTYPE svg PUBLIC "-//W3C//DTD SVG 1.1//EN" "http://www.w3.org/Graphics/SVG/1.1/DTD/svg11.dtd"><svg width="32" height="32" viewBox="0 0 32 32" version="1.1" xmlns="http://www.w3.org/2000/svg" xmlns:xlink="http://www.w3.org/1999/xlink"><defs><style type="text/css"><![CDATA[
@font-face { font-family: ifont; src: url("//at.alicdn.com/t/font_1442373896_4754455.eot?#iefix") format("embedded-opentype"), url("//at.alicdn.com/t/font_1442373896_4754455.woff") format("woff"), url("//at.alicdn.com/t/font_1442373896_4754455.ttf") format("truetype"), url("//at.alicdn.com/t/font_1442373896_4754455.svg#ifont") format("svg"); }

]]></style></defs><g class="transform-group"><g transform="scale(0.03125, 0.03125)"><path d="M809.121048 959.047686 213.172077 959.047686c-60.065004 0-108.764146-49.996694-108.764146-111.677499L104.407931 233.149061c0-61.680804 48.699142-111.677499 108.764146-111.677499L321.936223 121.471562 321.936223 93.546559c0-15.417131 12.174274-27.91784 27.191292-27.91784 15.017018 0 27.187199 12.499685 27.187199 27.91784l0 27.925003 271.909853 0L648.224568 93.546559c0-15.417131 12.177344-27.91784 27.195386-27.91784 15.017018 0 27.187199 12.499685 27.187199 27.91784l0 27.925003 108.768239 0c60.069097 0 108.760053 49.996694 108.760053 111.677499l0 614.221126C920.134421 909.050991 870.436532 959.047686 809.121048 959.047686zM864.625176 237.658771c0-30.652114-24.848944-55.492872-55.504128-55.492872L698.100512 182.1659l0 27.742854c0 15.319917-12.426007 27.746948-27.754111 27.746948-15.328104 0-27.758204-12.426007-27.758204-27.746948l0-27.742854L365.04095 182.1659l0 27.742854c0 15.319917-12.426007 27.746948-27.754111 27.746948s-27.754111-12.426007-27.754111-27.746948l0-27.742854L198.516286 182.1659c-30.6603 0-55.512315 24.840758-55.512315 55.492872l0 55.492872 721.622228 0L864.626199 237.658771zM865.755929 344.822466 158.789493 344.822466l0 502.547721c0 30.842449 24.347524 55.842843 54.381561 55.842843l598.202291 0c30.034037 0 54.381561-25.000394 54.381561-55.842843L865.754906 344.822466zM756.98769 847.370187 702.606129 847.370187c-30.030967 0-54.381561-24.996301-54.381561-55.838749l0-55.838749c0-30.842449 24.351618-55.838749 54.381561-55.838749l54.381561 0c30.03813 0 54.385655 24.996301 54.385655 55.838749l0 55.838749C811.374368 822.373887 787.02582 847.370187 756.98769 847.370187zM756.98769 735.692688 702.606129 735.692688l0 55.838749 54.381561 0L756.98769 735.692688zM756.98769 624.01519 702.606129 624.01519c-30.030967 0-54.381561-25.004487-54.381561-55.842843l0-55.834656c0-30.842449 24.351618-55.838749 54.381561-55.838749l54.381561 0c30.03813 0 54.385655 24.996301 54.385655 55.838749L811.373345 568.17337C811.374368 599.011726 787.02582 624.01519 756.98769 624.01519zM756.98769 512.337691 702.606129 512.337691 702.606129 568.17337l54.381561 0L756.98769 512.337691zM539.463492 847.370187 485.08193 847.370187c-30.034037 0-54.381561-24.996301-54.381561-55.838749l0-55.838749c0-30.842449 24.347524-55.838749 54.381561-55.838749l54.381561 0c30.034037 0 54.381561 24.996301 54.381561 55.838749l0 55.838749C593.846076 822.373887 569.498552 847.370187 539.463492 847.370187zM539.463492 735.692688 485.08193 735.692688l0 55.838749 54.381561 0L539.463492 735.692688zM539.463492 624.01519 485.08193 624.01519c-30.034037 0-54.381561-25.004487-54.381561-55.842843l0-55.834656c0-30.842449 24.347524-55.838749 54.381561-55.838749l54.381561 0c30.034037 0 54.381561 24.996301 54.381561 55.838749L593.845053 568.17337C593.846076 599.011726 569.498552 624.01519 539.463492 624.01519zM539.463492 512.337691 485.08193 512.337691 485.08193 568.17337l54.381561 0L539.463492 512.337691zM321.936223 847.370187l-54.381561 0c-30.034037 0-54.381561-24.996301-54.381561-55.838749l0-55.838749c0-30.842449 24.347524-55.838749 54.381561-55.838749l54.381561 0c30.034037 0 54.378491 24.996301 54.378491 55.838749l0 55.838749C376.313691 822.373887 351.97026 847.370187 321.936223 847.370187zM321.936223 735.692688l-54.381561 0 0 55.838749 54.381561 0L321.936223 735.692688zM321.936223 624.01519l-54.381561 0c-30.034037 0-54.381561-25.004487-54.381561-55.842843l0-55.834656c0-30.842449 24.347524-55.838749 54.381561-55.838749l54.381561 0c30.034037 0 54.378491 24.996301 54.378491 55.838749L376.314715 568.17337C376.313691 599.011726 351.97026 624.01519 321.936223 624.01519zM321.936223 512.337691l-54.381561 0L267.554662 568.17337l54.381561 0L321.936223 512.337691z" fill="#11cd6e"></path></g></g></svg>